<svg aria-roledescription="er" role="graphics-document document" viewBox="0 0 579.5 717" style="max-width: 100%;" xmlns="http://www.w3.org/2000/svg" width="100%" id="graph-div" height="100%" xmlns:xlink="http://www.w3.org/1999/xlink"><style>@import url("https://cdnjs.cloudflare.com/ajax/libs/font-awesome/6.4.2/css/all.min.css");'</style><style>#graph-div{font-family:"trebuchet ms",verdana,arial,sans-serif;font-size:16px;fill:#ccc;}#graph-div .error-icon{fill:#a44141;}#graph-div .error-text{fill:#ddd;stroke:#ddd;}#graph-div .edge-thickness-normal{stroke-width:2px;}#graph-div .edge-thickness-thick{stroke-width:3.5px;}#graph-div .edge-pattern-solid{stroke-dasharray:0;}#graph-div .edge-pattern-dashed{stroke-dasharray:3;}#graph-div .edge-pattern-dotted{stroke-dasharray:2;}#graph-div .marker{fill:lightgrey;stroke:lightgrey;}#graph-div .marker.cross{stroke:lightgrey;}#graph-div svg{font-family:"trebuchet ms",verdana,arial,sans-serif;font-size:16px;}#graph-div .entityBox{fill:#1f2020;stroke:#81B1DB;}#graph-div .attributeBoxOdd{fill:hsl(0, 0%, 32%);stroke:#81B1DB;}#graph-div .attributeBoxEven{fill:hsl(0, 0%, 22%);stroke:#81B1DB;}#graph-div .relationshipLabelBox{fill:hsl(20, 1.5873015873%, 12.3529411765%);opacity:0.7;background-color:hsl(20, 1.5873015873%, 12.3529411765%);}#graph-div .relationshipLabelBox rect{opacity:0.5;}#graph-div .relationshipLine{stroke:lightgrey;}#graph-div .entityTitleText{text-anchor:middle;font-size:18px;fill:#ccc;}#graph-div #MD_PARENT_START{fill:#f5f5f5!important;stroke:lightgrey!important;stroke-width:1;}#graph-div #MD_PARENT_END{fill:#f5f5f5!important;stroke:lightgrey!important;stroke-width:1;}#graph-div :root{--mermaid-font-family:"trebuchet ms",verdana,arial,sans-serif;}</style><g></g><defs><marker orient="auto" markerHeight="240" markerWidth="190" refY="7" refX="0" id="MD_PARENT_START"><path d="M 18,7 L9,13 L1,7 L9,1 Z"></path></marker></defs><defs><marker orient="auto" markerHeight="28" markerWidth="20" refY="7" refX="19" id="MD_PARENT_END"><path d="M 18,7 L9,13 L1,7 L9,1 Z"></path></marker></defs><defs><marker orient="auto" markerHeight="18" markerWidth="18" refY="9" refX="0" id="ONLY_ONE_START"><path d="M9,0 L9,18 M15,0 L15,18" fill="none" stroke="gray"></path></marker></defs><defs><marker orient="auto" markerHeight="18" markerWidth="18" refY="9" refX="18" id="ONLY_ONE_END"><path d="M3,0 L3,18 M9,0 L9,18" fill="none" stroke="gray"></path></marker></defs><defs><marker orient="auto" markerHeight="18" markerWidth="30" refY="9" refX="0" id="ZERO_OR_ONE_START"><circle r="6" cy="9" cx="21" fill="white" stroke="gray"></circle><path d="M9,0 L9,18" fill="none" stroke="gray"></path></marker></defs><defs><marker orient="auto" markerHeight="18" markerWidth="30" refY="9" refX="30" id="ZERO_OR_ONE_END"><circle r="6" cy="9" cx="9" fill="white" stroke="gray"></circle><path d="M21,0 L21,18" fill="none" stroke="gray"></path></marker></defs><defs><marker orient="auto" markerHeight="36" markerWidth="45" refY="18" refX="18" id="ONE_OR_MORE_START"><path d="M0,18 Q 18,0 36,18 Q 18,36 0,18 M42,9 L42,27" fill="none" stroke="gray"></path></marker></defs><defs><marker orient="auto" markerHeight="36" markerWidth="45" refY="18" refX="27" id="ONE_OR_MORE_END"><path d="M3,9 L3,27 M9,18 Q27,0 45,18 Q27,36 9,18" fill="none" stroke="gray"></path></marker></defs><defs><marker orient="auto" markerHeight="36" markerWidth="57" refY="18" refX="18" id="ZERO_OR_MORE_START"><circle r="6" cy="18" cx="48" fill="white" stroke="gray"></circle><path d="M0,18 Q18,0 36,18 Q18,36 0,18" fill="none" stroke="gray"></path></marker></defs><defs><marker orient="auto" markerHeight="36" markerWidth="57" refY="18" refX="39" id="ZERO_OR_MORE_END"><circle r="6" cy="18" cx="9" fill="white" stroke="gray"></circle><path d="M21,18 Q39,0 57,18 Q39,36 21,18" fill="none" stroke="gray"></path></marker></defs><path marker-start="url(#ONLY_ONE_START)" marker-end="url(#ZERO_OR_MORE_END)" style="stroke: gray; fill: none;" d="M113.583,251L113.583,259.333C113.583,267.667,113.583,284.333,128.094,312.907C142.606,341.481,171.628,381.963,186.139,402.203L200.65,422.444" class="er relationshipLine"></path><path marker-start="url(#ONLY_ONE_START)" marker-end="url(#ZERO_OR_MORE_END)" style="stroke: gray; fill: none;" d="M433.333,251L433.333,259.333C433.333,267.667,433.333,284.333,418.822,312.907C404.311,341.481,375.289,381.963,360.778,402.203L346.267,422.444" class="er relationshipLine"></path><g transform="translate(20,20 )" id="entity-Empresa-ca838301-7ef0-5408-b97c-f833a3b56ce4"><rect height="231" width="187.16666412353516" y="0" x="0" class="er entityBox"></rect><text transform="translate(93.58333206176758,12)" style="dominant-baseline: middle; text-anchor: middle; font-size: 12px;" y="0" x="0" id="text-entity-Empresa-ca838301-7ef0-5408-b97c-f833a3b56ce4" class="er entityLabel">Empresa</text><rect height="23" width="48.53333282470703" y="24" x="0" class="er attributeBoxOdd"></rect><text transform="translate(5,35.5)" style="dominant-baseline: middle; font-size: 10.2px;" y="0" x="0" id="text-entity-Empresa-ca838301-7ef0-5408-b97c-f833a3b56ce4-attr-1-type" class="er entityLabel">string</text><rect height="23" width="138.63333129882812" y="24" x="48.53333282470703" class="er attributeBoxOdd"></rect><text transform="translate(53.53333282470703,35.5)" style="dominant-baseline: middle; font-size: 10.2px;" y="0" x="0" id="text-entity-Empresa-ca838301-7ef0-5408-b97c-f833a3b56ce4-attr-1-name" class="er entityLabel">LINKEDIN_URL_EMPRESA</text><rect height="23" width="48.53333282470703" y="47" x="0" class="er attributeBoxEven"></rect><text transform="translate(5,58.5)" style="dominant-baseline: middle; font-size: 10.2px;" y="0" x="0" id="text-entity-Empresa-ca838301-7ef0-5408-b97c-f833a3b56ce4-attr-2-type" class="er entityLabel">STRING</text><rect height="23" width="138.63333129882812" y="47" x="48.53333282470703" class="er attributeBoxEven"></rect><text transform="translate(53.53333282470703,58.5)" style="dominant-baseline: middle; font-size: 10.2px;" y="0" x="0" id="text-entity-Empresa-ca838301-7ef0-5408-b97c-f833a3b56ce4-attr-2-name" class="er entityLabel">LOCATION_EMPRESA</text><rect height="23" width="48.53333282470703" y="70" x="0" class="er attributeBoxOdd"></rect><text transform="translate(5,81.5)" style="dominant-baseline: middle; font-size: 10.2px;" y="0" x="0" id="text-entity-Empresa-ca838301-7ef0-5408-b97c-f833a3b56ce4-attr-3-type" class="er entityLabel">STRING</text><rect height="23" width="138.63333129882812" y="70" x="48.53333282470703" class="er attributeBoxOdd"></rect><text transform="translate(53.53333282470703,81.5)" style="dominant-baseline: middle; font-size: 10.2px;" y="0" x="0" id="text-entity-Empresa-ca838301-7ef0-5408-b97c-f833a3b56ce4-attr-3-name" class="er entityLabel">START_TIME</text><rect height="23" width="48.53333282470703" y="93" x="0" class="er attributeBoxEven"></rect><text transform="translate(5,104.5)" style="dominant-baseline: middle; font-size: 10.2px;" y="0" x="0" id="text-entity-Empresa-ca838301-7ef0-5408-b97c-f833a3b56ce4-attr-4-type" class="er entityLabel">STRING</text><rect height="23" width="138.63333129882812" y="93" x="48.53333282470703" class="er attributeBoxEven"></rect><text transform="translate(53.53333282470703,104.5)" style="dominant-baseline: middle; font-size: 10.2px;" y="0" x="0" id="text-entity-Empresa-ca838301-7ef0-5408-b97c-f833a3b56ce4-attr-4-name" class="er entityLabel">END_TIME</text><rect height="23" width="48.53333282470703" y="116" x="0" class="er attributeBoxOdd"></rect><text transform="translate(5,127.5)" style="dominant-baseline: middle; font-size: 10.2px;" y="0" x="0" id="text-entity-Empresa-ca838301-7ef0-5408-b97c-f833a3b56ce4-attr-5-type" class="er entityLabel">string</text><rect height="23" width="138.63333129882812" y="116" x="48.53333282470703" class="er attributeBoxOdd"></rect><text transform="translate(53.53333282470703,127.5)" style="dominant-baseline: middle; font-size: 10.2px;" y="0" x="0" id="text-entity-Empresa-ca838301-7ef0-5408-b97c-f833a3b56ce4-attr-5-name" class="er entityLabel">DESCRIPCION_TRABAJO</text><rect height="23" width="48.53333282470703" y="139" x="0" class="er attributeBoxEven"></rect><text transform="translate(5,150.5)" style="dominant-baseline: middle; font-size: 10.2px;" y="0" x="0" id="text-entity-Empresa-ca838301-7ef0-5408-b97c-f833a3b56ce4-attr-6-type" class="er entityLabel">INT</text><rect height="23" width="138.63333129882812" y="139" x="48.53333282470703" class="er attributeBoxEven"></rect><text transform="translate(53.53333282470703,150.5)" style="dominant-baseline: middle; font-size: 10.2px;" y="0" x="0" id="text-entity-Empresa-ca838301-7ef0-5408-b97c-f833a3b56ce4-attr-6-name" class="er entityLabel">DURACION</text><rect height="23" width="48.53333282470703" y="162" x="0" class="er attributeBoxOdd"></rect><text transform="translate(5,173.5)" style="dominant-baseline: middle; font-size: 10.2px;" y="0" x="0" id="text-entity-Empresa-ca838301-7ef0-5408-b97c-f833a3b56ce4-attr-7-type" class="er entityLabel">string</text><rect height="23" width="138.63333129882812" y="162" x="48.53333282470703" class="er attributeBoxOdd"></rect><text transform="translate(53.53333282470703,173.5)" style="dominant-baseline: middle; font-size: 10.2px;" y="0" x="0" id="text-entity-Empresa-ca838301-7ef0-5408-b97c-f833a3b56ce4-attr-7-name" class="er entityLabel">LUGAR_TRABAJO</text><rect height="23" width="48.53333282470703" y="185" x="0" class="er attributeBoxEven"></rect><text transform="translate(5,196.5)" style="dominant-baseline: middle; font-size: 10.2px;" y="0" x="0" id="text-entity-Empresa-ca838301-7ef0-5408-b97c-f833a3b56ce4-attr-8-type" class="er entityLabel">string</text><rect height="23" width="138.63333129882812" y="185" x="48.53333282470703" class="er attributeBoxEven"></rect><text transform="translate(53.53333282470703,196.5)" style="dominant-baseline: middle; font-size: 10.2px;" y="0" x="0" id="text-entity-Empresa-ca838301-7ef0-5408-b97c-f833a3b56ce4-attr-8-name" class="er entityLabel">TIPO_EMPRESA</text><rect height="23" width="48.53333282470703" y="208" x="0" class="er attributeBoxOdd"></rect><text transform="translate(5,219.5)" style="dominant-baseline: middle; font-size: 10.2px;" y="0" x="0" id="text-entity-Empresa-ca838301-7ef0-5408-b97c-f833a3b56ce4-attr-9-type" class="er entityLabel">string</text><rect height="23" width="138.63333129882812" y="208" x="48.53333282470703" class="er attributeBoxOdd"></rect><text transform="translate(53.53333282470703,219.5)" style="dominant-baseline: middle; font-size: 10.2px;" y="0" x="0" id="text-entity-Empresa-ca838301-7ef0-5408-b97c-f833a3b56ce4-attr-9-name" class="er entityLabel">SALARIO</text></g><g transform="translate(200.64999389648438,351 )" id="entity-Egresados-e471b6ce-9fb8-51c3-aaba-3bf4d89c0d44"><rect height="346" width="145.61666870117188" y="0" x="0" class="er entityBox"></rect><text transform="translate(72.80833435058594,12)" style="dominant-baseline: middle; text-anchor: middle; font-size: 12px;" y="0" x="0" id="text-entity-Egresados-e471b6ce-9fb8-51c3-aaba-3bf4d89c0d44" class="er entityLabel">Egresados</text><rect height="23" width="48.53333282470703" y="24" x="0" class="er attributeBoxOdd"></rect><text transform="translate(5,35.5)" style="dominant-baseline: middle; font-size: 10.2px;" y="0" x="0" id="text-entity-Egresados-e471b6ce-9fb8-51c3-aaba-3bf4d89c0d44-attr-1-type" class="er entityLabel">string</text><rect height="23" width="97.08333587646484" y="24" x="48.53333282470703" class="er attributeBoxOdd"></rect><text transform="translate(53.53333282470703,35.5)" style="dominant-baseline: middle; font-size: 10.2px;" y="0" x="0" id="text-entity-Egresados-e471b6ce-9fb8-51c3-aaba-3bf4d89c0d44-attr-1-name" class="er entityLabel">ID</text><rect height="23" width="48.53333282470703" y="47" x="0" class="er attributeBoxEven"></rect><text transform="translate(5,58.5)" style="dominant-baseline: middle; font-size: 10.2px;" y="0" x="0" id="text-entity-Egresados-e471b6ce-9fb8-51c3-aaba-3bf4d89c0d44-attr-2-type" class="er entityLabel">string</text><rect height="23" width="97.08333587646484" y="47" x="48.53333282470703" class="er attributeBoxEven"></rect><text transform="translate(53.53333282470703,58.5)" style="dominant-baseline: middle; font-size: 10.2px;" y="0" x="0" id="text-entity-Egresados-e471b6ce-9fb8-51c3-aaba-3bf4d89c0d44-attr-2-name" class="er entityLabel">NOMBRE</text><rect height="23" width="48.53333282470703" y="70" x="0" class="er attributeBoxOdd"></rect><text transform="translate(5,81.5)" style="dominant-baseline: middle; font-size: 10.2px;" y="0" x="0" id="text-entity-Egresados-e471b6ce-9fb8-51c3-aaba-3bf4d89c0d44-attr-3-type" class="er entityLabel">string</text><rect height="23" width="97.08333587646484" y="70" x="48.53333282470703" class="er attributeBoxOdd"></rect><text transform="translate(53.53333282470703,81.5)" style="dominant-baseline: middle; font-size: 10.2px;" y="0" x="0" id="text-entity-Egresados-e471b6ce-9fb8-51c3-aaba-3bf4d89c0d44-attr-3-name" class="er entityLabel">SEXO</text><rect height="23" width="48.53333282470703" y="93" x="0" class="er attributeBoxEven"></rect><text transform="translate(5,104.5)" style="dominant-baseline: middle; font-size: 10.2px;" y="0" x="0" id="text-entity-Egresados-e471b6ce-9fb8-51c3-aaba-3bf4d89c0d44-attr-4-type" class="er entityLabel">STRING</text><rect height="23" width="97.08333587646484" y="93" x="48.53333282470703" class="er attributeBoxEven"></rect><text transform="translate(53.53333282470703,104.5)" style="dominant-baseline: middle; font-size: 10.2px;" y="0" x="0" id="text-entity-Egresados-e471b6ce-9fb8-51c3-aaba-3bf4d89c0d44-attr-4-name" class="er entityLabel">CURRENTLY_JOB</text><rect height="23" width="48.53333282470703" y="116" x="0" class="er attributeBoxOdd"></rect><text transform="translate(5,127.5)" style="dominant-baseline: middle; font-size: 10.2px;" y="0" x="0" id="text-entity-Egresados-e471b6ce-9fb8-51c3-aaba-3bf4d89c0d44-attr-5-type" class="er entityLabel">string</text><rect height="23" width="97.08333587646484" y="116" x="48.53333282470703" class="er attributeBoxOdd"></rect><text transform="translate(53.53333282470703,127.5)" style="dominant-baseline: middle; font-size: 10.2px;" y="0" x="0" id="text-entity-Egresados-e471b6ce-9fb8-51c3-aaba-3bf4d89c0d44-attr-5-name" class="er entityLabel">EMAIL</text><rect height="23" width="48.53333282470703" y="139" x="0" class="er attributeBoxEven"></rect><text transform="translate(5,150.5)" style="dominant-baseline: middle; font-size: 10.2px;" y="0" x="0" id="text-entity-Egresados-e471b6ce-9fb8-51c3-aaba-3bf4d89c0d44-attr-6-type" class="er entityLabel">string</text><rect height="23" width="97.08333587646484" y="139" x="48.53333282470703" class="er attributeBoxEven"></rect><text transform="translate(53.53333282470703,150.5)" style="dominant-baseline: middle; font-size: 10.2px;" y="0" x="0" id="text-entity-Egresados-e471b6ce-9fb8-51c3-aaba-3bf4d89c0d44-attr-6-name" class="er entityLabel">LUGAR_VIVE</text><rect height="23" width="48.53333282470703" y="162" x="0" class="er attributeBoxOdd"></rect><text transform="translate(5,173.5)" style="dominant-baseline: middle; font-size: 10.2px;" y="0" x="0" id="text-entity-Egresados-e471b6ce-9fb8-51c3-aaba-3bf4d89c0d44-attr-7-type" class="er entityLabel">string</text><rect height="23" width="97.08333587646484" y="162" x="48.53333282470703" class="er attributeBoxOdd"></rect><text transform="translate(53.53333282470703,173.5)" style="dominant-baseline: middle; font-size: 10.2px;" y="0" x="0" id="text-entity-Egresados-e471b6ce-9fb8-51c3-aaba-3bf4d89c0d44-attr-7-name" class="er entityLabel">LINKEDIN_URL</text><rect height="23" width="48.53333282470703" y="185" x="0" class="er attributeBoxEven"></rect><text transform="translate(5,196.5)" style="dominant-baseline: middle; font-size: 10.2px;" y="0" x="0" id="text-entity-Egresados-e471b6ce-9fb8-51c3-aaba-3bf4d89c0d44-attr-8-type" class="er entityLabel">STRING</text><rect height="23" width="97.08333587646484" y="185" x="48.53333282470703" class="er attributeBoxEven"></rect><text transform="translate(53.53333282470703,196.5)" style="dominant-baseline: middle; font-size: 10.2px;" y="0" x="0" id="text-entity-Egresados-e471b6ce-9fb8-51c3-aaba-3bf4d89c0d44-attr-8-name" class="er entityLabel">DESCRIPCION</text><rect height="23" width="48.53333282470703" y="208" x="0" class="er attributeBoxOdd"></rect><text transform="translate(5,219.5)" style="dominant-baseline: middle; font-size: 10.2px;" y="0" x="0" id="text-entity-Egresados-e471b6ce-9fb8-51c3-aaba-3bf4d89c0d44-attr-9-type" class="er entityLabel">INT</text><rect height="23" width="97.08333587646484" y="208" x="48.53333282470703" class="er attributeBoxOdd"></rect><text transform="translate(53.53333282470703,219.5)" style="dominant-baseline: middle; font-size: 10.2px;" y="0" x="0" id="text-entity-Egresados-e471b6ce-9fb8-51c3-aaba-3bf4d89c0d44-attr-9-name" class="er entityLabel">FOLLOWERS</text><rect height="23" width="48.53333282470703" y="231" x="0" class="er attributeBoxEven"></rect><text transform="translate(5,242.5)" style="dominant-baseline: middle; font-size: 10.2px;" y="0" x="0" id="text-entity-Egresados-e471b6ce-9fb8-51c3-aaba-3bf4d89c0d44-attr-10-type" class="er entityLabel">INT</text><rect height="23" width="97.08333587646484" y="231" x="48.53333282470703" class="er attributeBoxEven"></rect><text transform="translate(53.53333282470703,242.5)" style="dominant-baseline: middle; font-size: 10.2px;" y="0" x="0" id="text-entity-Egresados-e471b6ce-9fb8-51c3-aaba-3bf4d89c0d44-attr-10-name" class="er entityLabel">CONNECTIONS</text><rect height="23" width="48.53333282470703" y="254" x="0" class="er attributeBoxOdd"></rect><text transform="translate(5,265.5)" style="dominant-baseline: middle; font-size: 10.2px;" y="0" x="0" id="text-entity-Egresados-e471b6ce-9fb8-51c3-aaba-3bf4d89c0d44-attr-11-type" class="er entityLabel">string</text><rect height="23" width="97.08333587646484" y="254" x="48.53333282470703" class="er attributeBoxOdd"></rect><text transform="translate(53.53333282470703,265.5)" style="dominant-baseline: middle; font-size: 10.2px;" y="0" x="0" id="text-entity-Egresados-e471b6ce-9fb8-51c3-aaba-3bf4d89c0d44-attr-11-name" class="er entityLabel">ABOUT</text><rect height="23" width="48.53333282470703" y="277" x="0" class="er attributeBoxEven"></rect><text transform="translate(5,288.5)" style="dominant-baseline: middle; font-size: 10.2px;" y="0" x="0" id="text-entity-Egresados-e471b6ce-9fb8-51c3-aaba-3bf4d89c0d44-attr-12-type" class="er entityLabel">string</text><rect height="23" width="97.08333587646484" y="277" x="48.53333282470703" class="er attributeBoxEven"></rect><text transform="translate(53.53333282470703,288.5)" style="dominant-baseline: middle; font-size: 10.2px;" y="0" x="0" id="text-entity-Egresados-e471b6ce-9fb8-51c3-aaba-3bf4d89c0d44-attr-12-name" class="er entityLabel">IDIOMA</text><rect height="23" width="48.53333282470703" y="300" x="0" class="er attributeBoxOdd"></rect><text transform="translate(5,311.5)" style="dominant-baseline: middle; font-size: 10.2px;" y="0" x="0" id="text-entity-Egresados-e471b6ce-9fb8-51c3-aaba-3bf4d89c0d44-attr-13-type" class="er entityLabel">STRING</text><rect height="23" width="97.08333587646484" y="300" x="48.53333282470703" class="er attributeBoxOdd"></rect><text transform="translate(53.53333282470703,311.5)" style="dominant-baseline: middle; font-size: 10.2px;" y="0" x="0" id="text-entity-Egresados-e471b6ce-9fb8-51c3-aaba-3bf4d89c0d44-attr-13-name" class="er entityLabel">IDIOMA_LEVEL</text><rect height="23" width="48.53333282470703" y="323" x="0" class="er attributeBoxEven"></rect><text transform="translate(5,334.5)" style="dominant-baseline: middle; font-size: 10.2px;" y="0" x="0" id="text-entity-Egresados-e471b6ce-9fb8-51c3-aaba-3bf4d89c0d44-attr-14-type" class="er entityLabel">STRING</text><rect height="23" width="97.08333587646484" y="323" x="48.53333282470703" class="er attributeBoxEven"></rect><text transform="translate(53.53333282470703,334.5)" style="dominant-baseline: middle; font-size: 10.2px;" y="0" x="0" id="text-entity-Egresados-e471b6ce-9fb8-51c3-aaba-3bf4d89c0d44-attr-14-name" class="er entityLabel">EMAIL</text></g><g transform="translate(307.1666564941406,20 )" id="entity-Universidad-fe94c5c6-701c-5742-82d4-56ae5c977666"><rect height="231" width="252.33333587646484" y="0" x="0" class="er entityBox"></rect><text transform="translate(126.16666793823242,12)" style="dominant-baseline: middle; text-anchor: middle; font-size: 12px;" y="0" x="0" id="text-entity-Universidad-fe94c5c6-701c-5742-82d4-56ae5c977666" class="er entityLabel">Universidad</text><rect height="23" width="48.53333282470703" y="24" x="0" class="er attributeBoxOdd"></rect><text transform="translate(5,35.5)" style="dominant-baseline: middle; font-size: 10.2px;" y="0" x="0" id="text-entity-Universidad-fe94c5c6-701c-5742-82d4-56ae5c977666-attr-1-type" class="er entityLabel">string</text><rect height="23" width="203.8000030517578" y="24" x="48.53333282470703" class="er attributeBoxOdd"></rect><text transform="translate(53.53333282470703,35.5)" style="dominant-baseline: middle; font-size: 10.2px;" y="0" x="0" id="text-entity-Universidad-fe94c5c6-701c-5742-82d4-56ae5c977666-attr-1-name" class="er entityLabel">NOMBRE_UNIVERSIDAD</text><rect height="23" width="48.53333282470703" y="47" x="0" class="er attributeBoxEven"></rect><text transform="translate(5,58.5)" style="dominant-baseline: middle; font-size: 10.2px;" y="0" x="0" id="text-entity-Universidad-fe94c5c6-701c-5742-82d4-56ae5c977666-attr-2-type" class="er entityLabel">STRING</text><rect height="23" width="203.8000030517578" y="47" x="48.53333282470703" class="er attributeBoxEven"></rect><text transform="translate(53.53333282470703,58.5)" style="dominant-baseline: middle; font-size: 10.2px;" y="0" x="0" id="text-entity-Universidad-fe94c5c6-701c-5742-82d4-56ae5c977666-attr-2-name" class="er entityLabel">LINKEDIN_URL_UNIVERSIDAD</text><rect height="23" width="48.53333282470703" y="70" x="0" class="er attributeBoxOdd"></rect><text transform="translate(5,81.5)" style="dominant-baseline: middle; font-size: 10.2px;" y="0" x="0" id="text-entity-Universidad-fe94c5c6-701c-5742-82d4-56ae5c977666-attr-3-type" class="er entityLabel">STRING</text><rect height="23" width="203.8000030517578" y="70" x="48.53333282470703" class="er attributeBoxOdd"></rect><text transform="translate(53.53333282470703,81.5)" style="dominant-baseline: middle; font-size: 10.2px;" y="0" x="0" id="text-entity-Universidad-fe94c5c6-701c-5742-82d4-56ae5c977666-attr-3-name" class="er entityLabel">DETALLES_UNIVERSIDAD</text><rect height="23" width="48.53333282470703" y="93" x="0" class="er attributeBoxEven"></rect><text transform="translate(5,104.5)" style="dominant-baseline: middle; font-size: 10.2px;" y="0" x="0" id="text-entity-Universidad-fe94c5c6-701c-5742-82d4-56ae5c977666-attr-4-type" class="er entityLabel">string</text><rect height="23" width="203.8000030517578" y="93" x="48.53333282470703" class="er attributeBoxEven"></rect><text transform="translate(53.53333282470703,104.5)" style="dominant-baseline: middle; font-size: 10.2px;" y="0" x="0" id="text-entity-Universidad-fe94c5c6-701c-5742-82d4-56ae5c977666-attr-4-name" class="er entityLabel">PERIODO_INICIO</text><rect height="23" width="48.53333282470703" y="116" x="0" class="er attributeBoxOdd"></rect><text transform="translate(5,127.5)" style="dominant-baseline: middle; font-size: 10.2px;" y="0" x="0" id="text-entity-Universidad-fe94c5c6-701c-5742-82d4-56ae5c977666-attr-5-type" class="er entityLabel">string</text><rect height="23" width="203.8000030517578" y="116" x="48.53333282470703" class="er attributeBoxOdd"></rect><text transform="translate(53.53333282470703,127.5)" style="dominant-baseline: middle; font-size: 10.2px;" y="0" x="0" id="text-entity-Universidad-fe94c5c6-701c-5742-82d4-56ae5c977666-attr-5-name" class="er entityLabel">PERIODO_GRADUACION</text><rect height="23" width="48.53333282470703" y="139" x="0" class="er attributeBoxEven"></rect><text transform="translate(5,150.5)" style="dominant-baseline: middle; font-size: 10.2px;" y="0" x="0" id="text-entity-Universidad-fe94c5c6-701c-5742-82d4-56ae5c977666-attr-6-type" class="er entityLabel">string</text><rect height="23" width="203.8000030517578" y="139" x="48.53333282470703" class="er attributeBoxEven"></rect><text transform="translate(53.53333282470703,150.5)" style="dominant-baseline: middle; font-size: 10.2px;" y="0" x="0" id="text-entity-Universidad-fe94c5c6-701c-5742-82d4-56ae5c977666-attr-6-name" class="er entityLabel">ASIGNATURAS_POTENCIALIZADORAS</text><rect height="23" width="48.53333282470703" y="162" x="0" class="er attributeBoxOdd"></rect><text transform="translate(5,173.5)" style="dominant-baseline: middle; font-size: 10.2px;" y="0" x="0" id="text-entity-Universidad-fe94c5c6-701c-5742-82d4-56ae5c977666-attr-7-type" class="er entityLabel">string</text><rect height="23" width="203.8000030517578" y="162" x="48.53333282470703" class="er attributeBoxOdd"></rect><text transform="translate(53.53333282470703,173.5)" style="dominant-baseline: middle; font-size: 10.2px;" y="0" x="0" id="text-entity-Universidad-fe94c5c6-701c-5742-82d4-56ae5c977666-attr-7-name" class="er entityLabel">ACTIVIDADES_EXTRA_CURRICULARES</text><rect height="23" width="48.53333282470703" y="185" x="0" class="er attributeBoxEven"></rect><text transform="translate(5,196.5)" style="dominant-baseline: middle; font-size: 10.2px;" y="0" x="0" id="text-entity-Universidad-fe94c5c6-701c-5742-82d4-56ae5c977666-attr-8-type" class="er entityLabel">STRING</text><rect height="23" width="203.8000030517578" y="185" x="48.53333282470703" class="er attributeBoxEven"></rect><text transform="translate(53.53333282470703,196.5)" style="dominant-baseline: middle; font-size: 10.2px;" y="0" x="0" id="text-entity-Universidad-fe94c5c6-701c-5742-82d4-56ae5c977666-attr-8-name" class="er entityLabel">LOCATION_UNIVERSIDAD</text><rect height="23" width="48.53333282470703" y="208" x="0" class="er attributeBoxOdd"></rect><text transform="translate(5,219.5)" style="dominant-baseline: middle; font-size: 10.2px;" y="0" x="0" id="text-entity-Universidad-fe94c5c6-701c-5742-82d4-56ae5c977666-attr-9-type" class="er entityLabel">STRING</text><rect height="23" width="203.8000030517578" y="208" x="48.53333282470703" class="er attributeBoxOdd"></rect><text transform="translate(53.53333282470703,219.5)" style="dominant-baseline: middle; font-size: 10.2px;" y="0" x="0" id="text-entity-Universidad-fe94c5c6-701c-5742-82d4-56ae5c977666-attr-9-name" class="er entityLabel">FIELD_STUDY</text></g><rect height="14" width="35.33333206176758" y="334.9291687011719" x="127.22528648376465" class="er relationshipLabelBox"></rect><text style="text-anchor: middle; dominant-baseline: middle; font-size: 12px;" y="341.9291687011719" x="144.89195251464844" id="rel2032" class="er relationshipLabel">TIENE</text><rect height="14" width="35.33333206176758" y="334.9292297363281" x="384.35802268981934" class="er relationshipLabelBox"></rect><text style="text-anchor: middle; dominant-baseline: middle; font-size: 12px;" y="341.9292297363281" x="402.0246887207031" id="rel2033" class="er relationshipLabel">TIENE</text></svg>